<svg xmlns="http://www.w3.org/2000/svg" version="1.1" xmlns:xlink="http://www.w3.org/1999/xlink" xmlns:svgjs="http://svgjs.dev/svgjs" width="1500" height="1500" viewBox="0 0 1500 1500"><rect width="1500" height="1500" fill="#ffffff"></rect><g transform="matrix(0.6666666666666666,0,0,0.6666666666666666,249.85778443113782,249.85778443113765)"><svg viewBox="0 0 334 334" data-background-color="#ffffff" preserveAspectRatio="xMidYMid meet" height="1500" width="1500" xmlns="http://www.w3.org/2000/svg" xmlns:xlink="http://www.w3.org/1999/xlink"><g id="tight-bounds" transform="matrix(1,0,0,1,0.04749999999998522,0.04750000000001364)"><svg viewBox="0 0 333.90454557049503 333.90454557049503" height="333.90454557049503" width="333.90454557049503"><g><svg></svg></g><g><svg viewBox="0 0 333.90454557049503 333.90454557049503" height="333.90454557049503" width="333.90454557049503"><g><path d="M0 166.952c0-92.205 74.747-166.952 166.952-166.952 92.205 0 166.952 74.747 166.953 166.952 0 92.205-74.747 166.952-166.953 166.953-92.205 0-166.952-74.747-166.952-166.953zM166.952 330.672c90.42 0 163.719-73.3 163.72-163.72 0-90.42-73.3-163.719-163.72-163.719-90.42 0-163.719 73.3-163.719 163.719 0 90.42 73.3 163.719 163.719 163.72z" data-fill-palette-color="tertiary" fill="#000000" stroke="transparent"></path><ellipse rx="160.27418187383762" ry="160.27418187383762" cx="166.95227278524752" cy="166.95227278524752" fill="#000000" stroke="transparent" stroke-width="0" fill-opacity="1" data-fill-palette-color="tertiary"></ellipse></g><g transform="matrix(1,0,0,1,80.63298666621918,71.17305217166896)"><svg viewBox="0 0 172.63857223805667 191.55844122715712" height="191.55844122715712" width="172.63857223805667"><g><svg viewBox="0 0 213.1584412271571 236.51897838670652" height="191.55844122715712" width="172.63857223805667"><g transform="matrix(1,0,0,1,0,138.9283667405382)"><svg viewBox="0 0 213.1584412271571 97.59061164616831" height="97.59061164616831" width="213.1584412271571"><g id="textblocktransform"><svg viewBox="0 0 213.1584412271571 97.59061164616831" height="97.59061164616831" width="213.1584412271571" id="textblock"><g><svg viewBox="0 0 213.1584412271571 97.59061164616831" height="97.59061164616831" width="213.1584412271571"><g transform="matrix(1,0,0,1,0,0)"><svg width="213.1584412271571" viewBox="66.8 -28.65 141.10000000000002 61.599999999999994" height="97.59061164616831" data-palette-color="#ffffff"><svg></svg><svg></svg><g class="wordmark-text-0" data-fill-palette-color="quaternary" id="text-0"><path transform="translate(65.8,0)" d="M3.3 0h-2.3l10.35-28.15h3.75l10.45 28.15h-2.4l-9.9-27.1zM20.4-9.25h-14.35l0.45-2h13.5zM41.35 0.5v0c-2.567 0-4.873-0.55-6.92-1.65-2.053-1.1-3.67-2.727-4.85-4.88-1.187-2.147-1.78-4.82-1.78-8.02v0c0-3.233 0.583-5.933 1.75-8.1 1.167-2.167 2.793-3.793 4.88-4.88 2.08-1.08 4.453-1.62 7.12-1.62v0c2.2 0 4.15 0.4 5.85 1.2 1.7 0.8 3.127 1.957 4.28 3.47 1.147 1.52 1.92 3.38 2.32 5.58v0h-2.35c-0.333-1.767-0.973-3.26-1.92-4.48-0.953-1.213-2.12-2.13-3.5-2.75-1.387-0.613-2.947-0.92-4.68-0.92v0c-3.533 0-6.323 1.067-8.37 3.2-2.053 2.133-3.08 5.2-3.08 9.2v0c0 4.133 1.01 7.257 3.03 9.37 2.013 2.12 4.753 3.18 8.22 3.18v0c1.9 0 3.583-0.317 5.05-0.95 1.467-0.633 2.66-1.55 3.58-2.75 0.913-1.2 1.52-2.667 1.82-4.4v0h2.45c-0.4 2.167-1.167 4.01-2.3 5.53-1.133 1.513-2.59 2.67-4.37 3.47-1.787 0.8-3.863 1.2-6.23 1.2zM66-27.25h2.25v27.25h-2.25zM77.6-26.1h-21v-2.05h21zM87.2-0.9h-2.25v-26.35h2.25zM91.1 0h-10.1v-2h10.1zM91.1-26.1h-10.1v-2.05h10.1zM107.05-1.15l9.65-27h2.5l-10.25 28.15h-3.85l-10.2-28.15h2.45zM142.1 0h-18.75v-28.15h18.3v2.1h-16v10.8h12.8v2h-12.8v11.3h16.45z" fill="#ffffff" fill-rule="nonzero" stroke="none" stroke-width="1" stroke-linecap="butt" stroke-linejoin="miter" stroke-miterlimit="10" stroke-dasharray="" stroke-dashoffset="0" font-family="none" font-weight="none" font-size="none" text-anchor="none" style="mix-blend-mode: normal" data-fill-palette-color="quaternary" opacity="1"></path><path transform="translate(68.18,32.3)" d="M10.75-1.15l8.75-27h2.45l-1.25 3.15-8.1 25h-3.8l-8.65-28.15h2.45zM30.4-1.15l8.5-27h2.5l-9.1 28.15h-3.75l-7.85-25-1.15-3.15h2.4zM43.05 0h-2.3l10.35-28.15h3.75l10.45 28.15h-2.4l-9.9-27.1zM60.15-9.25h-14.35l0.45-2h13.5zM71.85-0.6h-2.25v-27.55h2.25zM88.35 0h-18.75v-2h18.75zM95.15-0.6h-2.25v-27.55h2.25zM111.65 0h-18.75v-2h18.75zM126.1 0.65v0c-1.467 0-2.883-0.173-4.25-0.52-1.367-0.353-2.617-0.907-3.75-1.66-1.133-0.747-2.033-1.697-2.7-2.85-0.667-1.147-1.017-2.537-1.05-4.17v0h2.3c0 0.1 0.033 0.4 0.1 0.9 0.067 0.5 0.243 1.1 0.53 1.8 0.28 0.7 0.763 1.383 1.45 2.05 0.68 0.667 1.63 1.223 2.85 1.67 1.213 0.453 2.77 0.68 4.67 0.68v0c1.733 0 3.127-0.21 4.18-0.63 1.047-0.413 1.837-0.93 2.37-1.55 0.533-0.613 0.893-1.203 1.08-1.77 0.18-0.567 0.27-1 0.27-1.3v0c0.033-1.267-0.283-2.293-0.95-3.08-0.667-0.78-1.567-1.413-2.7-1.9-1.133-0.48-2.367-0.887-3.7-1.22-1.333-0.333-2.673-0.693-4.02-1.08-1.353-0.38-2.597-0.863-3.73-1.45-1.133-0.58-2.023-1.363-2.67-2.35-0.653-0.98-0.947-2.253-0.88-3.82v0c0.067-1.467 0.577-2.727 1.53-3.78 0.947-1.047 2.213-1.853 3.8-2.42 1.58-0.567 3.32-0.85 5.22-0.85v0c1.9 0 3.627 0.34 5.18 1.02 1.547 0.687 2.78 1.687 3.7 3 0.913 1.32 1.337 2.98 1.27 4.98v0h-2.25c0.067-1.4-0.183-2.55-0.75-3.45-0.567-0.9-1.283-1.6-2.15-2.1-0.867-0.5-1.767-0.843-2.7-1.03-0.933-0.18-1.767-0.27-2.5-0.27v0c-2.3 0-4.19 0.473-5.67 1.42-1.487 0.953-2.263 2.163-2.33 3.63v0c-0.033 1.267 0.283 2.283 0.95 3.05 0.667 0.767 1.567 1.377 2.7 1.83 1.133 0.447 2.377 0.837 3.73 1.17 1.347 0.333 2.687 0.683 4.02 1.05 1.333 0.367 2.56 0.85 3.68 1.45 1.113 0.6 1.997 1.407 2.65 2.42 0.647 1.02 0.953 2.33 0.92 3.93v0c-0.067 1.533-0.567 2.833-1.5 3.9-0.933 1.067-2.167 1.883-3.7 2.45-1.533 0.567-3.267 0.85-5.2 0.85z" fill="#ffffff" fill-rule="nonzero" stroke="none" stroke-width="1" stroke-linecap="butt" stroke-linejoin="miter" stroke-miterlimit="10" stroke-dasharray="" stroke-dashoffset="0" font-family="none" font-weight="none" font-size="none" text-anchor="none" style="mix-blend-mode: normal" data-fill-palette-color="quaternary" opacity="1"></path></g></svg></g></svg></g></svg></g></svg></g><g transform="matrix(1,0,0,1,24.246772689589122,0)"><svg viewBox="0 0 164.66489584797887 128.47887949309333" height="128.47887949309333" width="164.66489584797887"><g><svg xmlns="http://www.w3.org/2000/svg" xmlns:xlink="http://www.w3.org/1999/xlink" version="1.1" x="0" y="0" viewBox="5.992 15.663 88.01599999999999 68.674" enable-background="new 0 0 100 100" xml:space="preserve" height="128.47887949309333" width="164.66489584797887" class="icon-icon-0" data-fill-palette-color="quaternary" id="icon-0"><g fill="#ffffff" data-fill-palette-color="quaternary"><g fill="#ffffff" data-fill-palette-color="quaternary"><polygon fill-rule="evenodd" clip-rule="evenodd" points="23.656,31.452 40.291,49.08 40.291,84.088 6.093,84.088 6.093,49.08     23.656,31.452   " fill="#ffffff" data-fill-palette-color="quaternary"></polygon><path d="M40.392 84.189H5.992V49.038L6.021 49.008 23.657 31.306 23.729 31.382 40.392 49.039zM6.194 83.986H40.189V49.12L23.654 31.598 6.194 49.121z" fill="#ffffff" data-fill-palette-color="quaternary"></path></g><polygon fill-rule="evenodd" clip-rule="evenodd" points="76.54,15.663 42.773,49.08 42.773,84.336 59.16,67.701 59.16,32.865    76.54,49.328 76.54,84.337 94.008,67.453 94.008,32.693 76.54,15.663  " fill="#ffffff" data-fill-palette-color="quaternary"></polygon></g></svg></g></svg></g><g></g></svg></g></svg></g></svg></g><defs></defs></svg><rect width="333.90454557049503" height="333.90454557049503" fill="none" stroke="none" visibility="hidden"></rect></g></svg></g></svg>